#!OML:ASF H:\ManfredETheater\Project 1\Capture day 1\Session 1\subject.ASF
:FULLY-SPECIFIED
:DEGREES
212
root 1.95526 15.5206 21.4862 -149.845 -3.28665 181.525
lowerback 16.9233 0.725528 4.16073
upperback 1.29538 1.64998 4.18454
thorax -8.11245 0.534136 1.78416
lowerneck -11.526 -1.5792 -3.7681
upperneck -5.00381 -2.27266 0.184417
head 0.389698 -1.34804 0.598013
rclavicle 6.36111e-015 3.57812e-014
rhumerus -39.9077 5.67053 -89.9818
rradius 86.2744
rwrist -16.7495
rhand -26.5901 3.28271
rfingers 7.12502
rthumb -0.0242013 -26.697
lclavicle 6.36111e-015 3.57812e-014
lhumerus -40.0276 -14.1927 100.385
lradius 101.212
lwrist 10.3649
lhand -23.9636 -3.6658
lfingers 7.12502
lthumb 2.51249 26.2991
rfemur -28.3944 0.212154 26.5715
rtibia 58.3215
rfoot -26.4253 -4.63893
rtoes -24.7603
lfemur -59.1511 6.65562 -17.7966
ltibia 96.3571
lfoot -18.5822 -0.0508376
ltoes -13.6288
213
root 1.97747 15.5291 21.1723 -149.861 -3.27526 181.586
lowerback 16.8375 0.920138 4.14999
upperback 1.22599 1.91058 4.17087
thorax -8.14106 0.661893 1.71486
lowerneck -11.4411 -1.74084 -3.90603
upperneck -4.77032 -2.44402 0.228258
head 0.456223 -1.42144 0.628152
rclavicle 1.90833e-014 4.13472e-014
rhumerus -38.372 7.04922 -90.3027
rradius 89.3682
rwrist -16.5921
rhand -26.3737 3.96589
rfingers 7.12502
rthumb 0.184836 -26.0138
lclavicle 1.90833e-014 4.13472e-014
lhumerus -41.8832 -13.8155 100.201
lradius 100.326
lwrist 10.3015
lhand -24.3142 -3.69138
lfingers 7.12502
lthumb 2.17393 26.2773
rfemur -26.1193 0.559284 26.6719
rtibia 56.0348
rfoot -25.8155 -4.53052
rtoes -24.9158
lfemur -61.9553 7.22478 -18.351
ltibia 97.0162
lfoot -19.0995 -0.729242
ltoes -13.8338
214
root 1.9969 15.5391 20.8494 -149.868 -3.26183 181.638
lowerback 16.7581 1.08664 4.1577
upperback 1.13901 2.14012 4.14509
thorax -8.19095 0.774288 1.62969
lowerneck -11.3968 -1.88039 -4.01231
upperneck -4.47965 -2.58641 0.233907
head 0.54644 -1.48167 0.641551
rclavicle 1.51076e-014 -3.97569e-015
rhumerus -36.7036 8.45616 -90.5202
rradius 92.5421
rwrist -16.4789
rhand -26.1112 4.71926
rfingers 7.12502
rthumb 0.438332 -25.26
lclavicle 1.51076e-014 -3.97569e-015
lhumerus -43.9192 -13.3836 99.8737
lradius 99.1983
lwrist 10.3533
lhand -24.6761 -3.75646
lfingers 7.12502
lthumb 1.82438 26.2155
rfemur -23.787 0.886125 26.754
rtibia 53.5941
rfoot -24.9486 -4.35234
rtoes -25.0854
lfemur -64.7153 7.60987 -18.9472
ltibia 97.3022
lfoot -19.572 -1.62196
ltoes -13.8678
215
root 2.01339 15.5582 20.5139 -149.864 -3.24156 181.681
lowerback 16.6916 1.22614 4.18977
upperback 1.03478 2.34116 4.10388
thorax -8.26468 0.872072 1.52086
lowerneck -11.3816 -1.99911 -4.08794
upperneck -4.15648 -2.7034 0.206164
head 0.650655 -1.53088 0.639843
rclavicle -1.59028e-015 -3.81667e-014
rhumerus -34.9159 9.86982 -90.6152
rradius 95.7408
rwrist -16.4325
rhand -25.8175 5.47977
rfingers 7.12502
rthumb 0.721993 -24.4988
lclavicle -1.59028e-015 -3.81667e-014
lhumerus -46.1054 -12.9198 99.4075
lradius 97.898
lwrist 10.4558
lhand -25.061 -3.84595
lfingers 7.12502
lthumb 1.45267 26.1288
rfemur -21.3983 1.19328 26.8088
rtibia 50.9974
rfoot -23.7696 -4.08602
rtoes -25.2882
lfemur -67.3391 7.81623 -19.5558
ltibia 97.1695
lfoot -20.0209 -2.73712
ltoes -13.7461
216
root 2.02619 15.5816 20.1679 -149.842 -3.2139 181.714
lowerback 16.6309 1.33811 4.25304
upperback 0.919944 2.51262 4.04257
thorax -8.3504 0.954345 1.37956
lowerneck -11.4014 -2.1007 -4.13061
upperneck -3.81982 -2.80166 0.151083
head 0.763999 -1.57294 0.624231
rclavicle 1.27222e-014 -2.62396e-014
rhumerus -33.0197 11.2631 -90.576
rradius 98.8915
rwrist -16.4331
rhand -25.5343 6.23293
rfingers 7.12502
rthumb 0.995527 -23.7445
lclavicle 1.27222e-014 -2.62396e-014
lhumerus -48.4007 -12.4493 98.8114
lradius 96.4971
lwrist 10.5542
lhand -25.4943 -3.94575
lfingers 7.12502
lthumb 1.03419 26.0315
rfemur -18.9994 1.4779 26.825
rtibia 48.2934
rfoot -22.2327 -3.71224
rtoes -25.4926
lfemur -69.8284 7.84868 -20.1576
ltibia 96.6564
lfoot -20.4122 -4.06749
ltoes -13.3995
217
root 2.03514 15.6104 19.8112 -149.798 -3.17592 181.744
lowerback 16.575 1.42605 4.35393
upperback 0.798521 2.65937 3.95946
thorax -8.4424 1.02296 1.19921
lowerneck -11.4477 -2.18929 -4.13979
upperneck -3.49927 -2.88905 0.0769939
head 0.875802 -1.61195 0.597059
rclavicle 2.38542e-015 6.67916e-014
rhumerus -31.0317 12.5969 -90.3897
rradius 101.924
rwrist -16.4125
rhand -25.2633 6.9644
rfingers 7.12502
rthumb 1.25723 -23.0116
lclavicle 2.38542e-015 6.67916e-014
lhumerus -50.7709 -11.9958 98.1042
lradius 95.0763
lwrist 10.6038
lhand -25.9854 -4.02452
lfingers 7.12502
lthumb 0.559882 25.9545
rfemur -16.6158 1.7438 26.8002
rtibia 45.493
rfoot -20.2702 -3.22868
rtoes -25.6831
lfemur -72.1449 7.73414 -20.7249
ltibia 95.7677
lfoot -20.7195 -5.60199
ltoes -12.8404
218
root 2.04007 15.6441 19.4442 -149.723 -3.12561 181.779
lowerback 16.5205 1.4944 4.50061
upperback 0.67336 2.78791 3.85464
thorax -8.53515 1.08047 0.973815
lowerneck -11.5268 -2.26836 -4.11402
upperneck -3.20714 -2.97109 -0.0117076
head 0.983282 -1.65077 0.559166
rclavicle -7.15625e-015 1.11319e-014
rhumerus -28.9909 13.8297 -90.0522
rradius 104.799
rwrist -16.3577
rhand -25.0238 7.67008
rfingers 7.12502
rthumb 1.48859 -22.3045
lclavicle -7.15625e-015 1.11319e-014
lhumerus -53.1857 -11.5691 97.3082
lradius 93.7185
lwrist 10.5898
lhand -26.4961 -4.05589
lfingers 7.12502
lthumb 0.0665544 25.9238
rfemur -14.2872 1.99407 26.7356
rtibia 42.6328
rfoot -17.8269 -2.6511
rtoes -25.8258
lfemur -74.2643 7.50576 -21.2376
ltibia 94.5307
lfoot -20.9145 -7.29526
ltoes -12.1855
219
root 2.04099 15.6827 19.0674 -149.628 -3.0613 181.831
lowerback 16.4706 1.54862 4.70113
upperback 0.555407 2.90535 3.72839
thorax -8.61771 1.12961 0.697586
lowerneck -11.637 -2.34203 -4.05104
upperneck -2.96291 -3.05491 -0.103681
head 1.0801 -1.69274 0.513478
rclavicle -9.54166e-015 -1.59028e-015
rhumerus -26.9328 14.9223 -89.5672
rradius 107.48
rwrist -16.2439
rhand -24.8221 8.33937
rfingers 7.12502
rthumb 1.68337 -21.6337
lclavicle -9.54166e-015 -1.59028e-015
lhumerus -55.6133 -11.1751 96.4424
lradius 92.5086
lwrist 10.5363
lhand -27.0189 -4.04078
lfingers 7.12502
lthumb -0.438296 25.9385
rfemur -12.0313 2.2378 26.6377
rtibia 39.7269
rfoot -14.7937 -2.01131
rtoes -25.7602
lfemur -76.1491 7.20404 -21.6759
ltibia 92.9768
lfoot -20.9698 -9.08831
ltoes -11.5064
220
root 2.03814 15.7251 18.6812 -149.519 -2.98321 181.914
lowerback 16.4295 1.59442 4.96126
upperback 0.451732 3.01947 3.58145
thorax -8.68408 1.17368 0.366351
lowerneck -11.7803 -2.41511 -3.94641
upperneck -2.77618 -3.14813 -0.192017
head 1.16355 -1.74146 0.461061
rclavicle -2.54444e-014 -6.67916e-014
rhumerus -24.8975 15.8422 -88.9503
rradius 109.949
rwrist -16.1009
rhand -24.6782 8.97087
rfingers 7.12502
rthumb 1.82235 -21.0011
lclavicle -2.54444e-014 -6.67916e-014
lhumerus -58.0255 -10.8177 95.526
lradius 91.512
lwrist 10.5058
lhand -27.5016 -3.95351
lfingers 7.12502
lthumb -0.904534 26.0243
rfemur -9.87172 2.49523 26.5143
rtibia 36.791
rfoot -11.0559 -1.37824
rtoes -25.3602
lfemur -77.7732 6.86819 -22.0259
ltibia 91.1547
lfoot -20.8567 -10.8991
ltoes -10.9397
221
root 2.03241 15.7699 18.2865 -149.402 -2.89552 182.035
lowerback 16.3875 1.63867 5.27423
upperback 0.366652 3.13712 3.41808
thorax -8.72394 1.21652 -0.0126493
lowerneck -11.9421 -2.4917 -3.80629
upperneck -2.65561 -3.25619 -0.258971
head 1.22872 -1.79869 0.408497
rclavicle 9.54166e-015 -1.43125e-014
rhumerus -22.9292 16.5687 -88.2177
rradius 112.199
rwrist -15.9656
rhand -24.6251 9.53873
rfingers 7.12502
rthumb 1.87361 -20.4328
lclavicle 9.54166e-015 -1.43125e-014
lhumerus -60.398 -10.4985 94.5808
lradius 90.7677
lwrist 10.5722
lhand -27.9487 -3.87587
lfingers 7.12502
lthumb -1.33636 26.0997
rfemur -7.83356 2.78462 26.3787
rtibia 33.8511
rfoot -6.55528 -0.864649
rtoes -24.5587
lfemur -79.1282 6.536 -22.2856
ltibia 89.1271
lfoot -20.5695 -12.6304
ltoes -10.5729
222
root 2.0246 15.8151 17.8839 -149.29 -2.79474 182.204
lowerback 16.3384 1.69035 5.62956
upperback 0.306407 3.26713 3.24311
thorax -8.72707 1.26327 -0.429839
lowerneck -12.1065 -2.57751 -3.647
upperneck -2.59803 -3.38431 -0.27679
head 1.27468 -1.86558 0.36725
rclavicle 3.10104e-014 1.59028e-014
rhumerus -21.0727 17.0989 -87.3889
rradius 114.239
rwrist -15.8846
rhand -24.6793 10.0083
rfingers 7.12502
rthumb 1.82132 -19.9637
lclavicle 3.10104e-014 1.59028e-014
lhumerus -62.7045 -10.2169 93.6254
lradius 90.2869
lwrist 10.7975
lhand -28.3231 -3.7168
lfingers 7.12502
lthumb -1.69793 26.2562
rfemur -5.92473 3.11058 26.2489
rtibia 30.9534
rfoot -1.35625 -0.668755
rtoes -23.202
lfemur -80.2065 6.24171 -22.4572
ltibia 86.9726
lfoot -20.1214 -14.1652
ltoes -10.4319
